<svg xmlns="http://www.w3.org/2000/svg" 
viewBox="0 0 841.9 595.3">
<g fill="#61DAFB">
<path d="m 224.20779,765.35518 c -2.64557,-0.14719 27.72136,-17.26221 67.48206,-38.03339 42.74011,-22.32764 93.06818,-57.2007 123.11577,-85.30875 33.13633,-30.9974 55.60003,-60.04989 64.54847,-83.48104 8.61762,-22.56491 12.13109,-47.82067 9.44184,-67.87049 -2.35567,-17.56282 -12.87026,-49.45589 -23.36576,-70.8735 -10.67203,-21.77783 -48.74386,-68.46387 -86.37981,-105.9243 -37.01341,-36.84077 -63.61762,-66.98322 -59.12047,-66.98322 4.49714,0 27.48602,11.2515 51.08639,25.00333 23.60037,13.75184 62.35419,43.84294 86.11958,66.86913 23.76541,23.02618 52.73873,60.10282 64.38518,82.39253 15.15048,28.99595 21.26713,53.24288 21.49789,85.21955 0.24981,34.61397 -4.7496,53.34773 -22.16892,83.07156 -12.37029,21.10831 -41.48876,52.6611 -64.7077,70.1173 -23.21894,17.4562 -64.1007,41.52956 -90.84835,53.49636 -26.74766,11.96679 -68.35199,28.69111 -92.45408,37.16518 -24.10209,8.47405 -45.98653,15.28693 -48.63209,15.13975 z m -48.46536,-27.48405 c -11.65316,2.43393 7.64945,-11.10682 42.89468,-30.09054 35.24523,-18.98373 84.98835,-53.87125 110.54028,-77.52782 25.55192,-23.65657 52.33787,-55.40278 59.52434,-70.54713 7.18646,-15.14435 12.98619,-43.39729 12.88829,-62.7843 -0.0979,-19.38701 -7.43189,-51.23637 -16.29773,-70.77637 -8.86584,-19.53998 -45.90679,-66.04442 -82.31322,-103.34318 -36.40644,-37.29878 -61.80972,-67.81595 -56.45175,-67.81595 5.35797,0 32.97005,14.66999 61.36018,32.59998 28.39012,17.92998 66.92352,49.20405 85.62976,69.49793 18.70625,20.29387 41.38844,53.57509 50.40489,73.95827 12.01537,27.16271 15.44336,48.51824 12.8357,79.96314 -2.36471,28.51536 -10.86321,53.94199 -25.34215,75.82115 -11.98137,18.10507 -39.05505,45.59035 -60.16373,61.07838 -21.10867,15.48803 -68.96649,41.0708 -106.3507,56.85059 -37.38421,15.77979 -77.50569,30.68191 -89.15884,33.11585 z m -61.7143,-33.068 c -15.05387,3.27266 -0.27728,-8.0645 38.79302,-29.7635 34.71,-19.27735 79.67875,-51.28931 99.93057,-71.13768 20.25183,-19.84837 42.59366,-47.20392 49.64853,-60.79012 7.05486,-13.58619 12.81551,-39.29179 12.80145,-57.12356 -0.0141,-17.83177 -8.04597,-48.0677 -17.84866,-67.19096 -9.8027,-19.12326 -43.67062,-61.98029 -75.26205,-95.23784 -31.59143,-33.25756 -53.78726,-60.46828 -49.32407,-60.46828 4.46319,0 24.55136,9.18651 44.64038,20.41448 20.08901,11.22796 53.06906,34.97673 73.28901,52.77503 20.21994,17.7983 46.18806,51.27311 57.70693,74.38847 13.41028,26.91092 20.94339,55.46174 20.94339,79.37635 0,27.30827 -6.33383,47.33585 -23.56125,74.50067 -12.9587,20.43373 -39.4024,48.00704 -58.76378,61.27401 -19.3614,13.26698 -60.73438,35.27613 -91.93998,48.90924 -31.20559,13.6331 -67.67967,27.16626 -81.05349,30.07369 z"/>
<circle cx="420.9" cy="296.5" r="45.7"/>
<path d="M520.5 78.1z"/>
</g>
</svg>